<?xml version="1.0" standalone="no"?>
<!DOCTYPE svg PUBLIC "-//W3C//DTD SVG 20010904//EN"
 "http://www.w3.org/TR/2001/REC-SVG-20010904/DTD/svg10.dtd">
<svg version="1.0" xmlns="http://www.w3.org/2000/svg" width="1024.000000pt" height="600.000000pt" viewBox="0 0 3904.000000 2400.000000" 
 preserveAspectRatio="xMidYMid meet">

<g transform="translate(0.000000,2400.000000) scale(0.100000,-0.100000)"
fill="#02838d" stroke="none">
<path d="M26370 22784 c-174 -18 -381 -58 -484 -93 -224 -76 -341 -207 -382
-426 -21 -113 -48 -229 -76 -322 l-21 -73 -164 0 c-355 0 -596 -59 -696 -169
-41 -45 -46 -75 -21 -122 44 -87 271 -159 659 -209 50 -6 97 -13 105 -16 12
-3 20 -36 33 -142 25 -196 15 -258 -76 -492 -49 -126 -60 -167 -61 -217 -1
-52 3 -65 24 -88 30 -33 76 -57 153 -81 l57 -18 0 -97 c0 -96 1 -99 31 -134
32 -36 33 -51 14 -111 -5 -18 7 -36 60 -95 50 -54 80 -100 115 -174 57 -117
103 -175 164 -205 55 -26 77 -24 291 35 204 57 286 69 352 52 62 -17 132 -57
181 -105 43 -43 282 -347 282 -359 0 -4 -25 -21 -56 -37 -38 -20 -64 -42 -81
-70 -41 -68 -105 -158 -154 -218 -25 -32 -59 -84 -74 -115 -46 -92 -122 -212
-168 -263 -50 -57 -112 -174 -103 -196 3 -8 46 -34 96 -57 49 -22 90 -47 90
-54 0 -19 -55 -128 -81 -161 -11 -15 -70 -128 -130 -251 -60 -123 -120 -238
-133 -255 -13 -18 -77 -142 -143 -276 -66 -135 -133 -261 -149 -280 -16 -19
-45 -71 -64 -115 -49 -116 -137 -292 -176 -350 -18 -27 -79 -144 -135 -260
-57 -115 -134 -261 -171 -324 -37 -63 -68 -119 -68 -125 0 -6 -19 -36 -43 -67
-40 -54 -99 -107 -337 -306 -58 -48 -139 -120 -180 -159 -41 -39 -121 -108
-178 -153 -57 -46 -106 -89 -109 -97 -3 -7 -46 -47 -96 -87 -51 -41 -139 -117
-197 -170 -58 -54 -109 -97 -114 -97 -12 0 -95 -70 -231 -195 -249 -229 -618
-547 -686 -592 l-39 -26 -168 7 c-92 4 -214 9 -272 11 -58 3 -168 7 -245 10
l-140 6 -85 -39 c-47 -22 -128 -60 -180 -85 -52 -25 -149 -70 -215 -102 -66
-31 -158 -72 -204 -91 -152 -63 -261 -152 -261 -213 0 -16 -6 -34 -13 -40 -21
-16 -126 -36 -532 -96 -203 -30 -431 -64 -505 -76 -74 -11 -160 -24 -190 -29
-30 -4 -158 -24 -285 -44 -126 -19 -309 -47 -405 -61 -96 -14 -185 -27 -198
-29 -42 -7 -52 17 -52 125 0 94 -1 99 -22 104 -13 2 -111 23 -218 45 -227 46
-416 99 -584 164 -167 65 -228 100 -318 183 -160 147 -349 226 -724 305 l-159
33 -350 0 -350 -1 -153 -32 c-215 -46 -402 -95 -577 -152 -489 -158 -734 -229
-1440 -416 -234 -61 -396 -107 -437 -123 -28 -10 -28 -12 -28 -96 0 -80 -1
-85 -22 -89 -62 -13 -1123 -254 -1633 -371 -319 -74 -683 -157 -810 -185
l-230 -52 -20 29 c-11 15 -54 62 -95 104 -84 85 -183 140 -320 179 -96 27
-297 37 -440 21 -107 -12 -157 -20 -540 -91 -118 -21 -228 -41 -245 -44 -16
-3 -115 -22 -220 -41 -104 -20 -239 -45 -300 -56 -60 -11 -155 -29 -210 -39
-55 -11 -127 -24 -160 -29 -33 -5 -231 -41 -440 -80 -209 -39 -463 -82 -565
-96 -226 -31 -490 -79 -590 -106 -112 -32 -126 -35 -375 -79 -435 -78 -511
-88 -538 -68 -13 10 -21 36 -28 93 -21 177 -169 394 -320 471 -102 52 -243 42
-384 -27 -84 -41 -198 -128 -333 -256 -217 -203 -315 -277 -392 -294 -22 -5
-63 -20 -92 -33 -29 -13 -91 -36 -138 -51 -47 -15 -102 -37 -124 -47 -21 -11
-98 -40 -170 -65 -72 -24 -156 -58 -188 -75 -59 -31 -144 -108 -154 -140 -8
-27 -140 -116 -182 -124 -77 -15 -202 -185 -202 -275 0 -48 34 -141 65 -177
l23 -26 40 18 c23 10 66 40 97 66 55 47 112 70 169 70 l26 0 0 -905 0 -905
1205 0 1205 0 0 -3092 c0 -1701 3 -3306 7 -3566 l6 -473 263 3 c144 2 266 7
271 11 17 18 20 255 22 2027 2 1743 7 2160 27 2180 24 23 289 135 370 155 50
13 147 47 217 75 69 27 129 50 131 50 3 0 52 22 108 49 57 27 196 81 310 120
113 39 232 82 263 96 32 14 65 25 75 25 10 0 20 6 23 13 7 18 229 109 288 118
57 9 305 105 424 164 50 25 191 79 315 121 124 42 270 97 325 124 55 26 118
53 140 60 22 7 58 22 80 33 21 11 78 30 125 42 47 13 121 38 165 55 44 18 112
43 150 57 39 14 97 40 130 58 33 19 168 70 300 115 132 45 294 108 360 140 66
32 179 77 250 100 219 70 441 154 465 175 25 23 116 60 241 98 156 48 384 133
436 163 61 35 223 98 331 129 114 31 322 113 422 164 41 21 180 74 308 116
129 43 273 98 320 122 102 52 321 137 395 154 65 14 1143 22 1264 9 98 -11
342 -91 435 -144 79 -43 263 -115 433 -167 72 -22 163 -58 204 -80 87 -47 241
-107 406 -159 214 -68 359 -124 395 -155 8 -7 60 -29 115 -49 55 -20 127 -47
160 -60 33 -13 85 -29 115 -36 65 -16 212 -73 249 -98 41 -28 285 -122 396
-153 117 -32 250 -84 355 -138 41 -22 183 -76 315 -121 132 -45 269 -97 305
-116 91 -48 293 -129 435 -174 200 -63 312 -105 330 -123 23 -24 56 -37 325
-129 129 -44 255 -90 280 -102 25 -13 63 -32 85 -44 22 -11 126 -50 230 -87
299 -104 438 -156 470 -175 52 -31 273 -115 473 -180 106 -35 210 -74 230 -88
52 -35 308 -135 427 -166 55 -15 145 -49 201 -76 55 -28 123 -57 151 -65 l50
-15 6 -757 c4 -417 7 -1366 7 -2110 l0 -1352 275 -1 275 -1 0 3567 0 3567 898
-7 c1100 -8 1380 -14 1547 -32 182 -20 663 -101 738 -124 93 -29 490 -94 852
-140 360 -46 474 -62 550 -80 44 -10 107 -21 140 -25 33 -4 68 -12 78 -17 23
-12 127 -32 362 -69 340 -53 448 -68 577 -79 70 -6 167 -19 216 -30 99 -22
278 -50 317 -50 26 0 37 26 64 162 10 44 22 68 62 113 27 31 56 69 63 84 21
39 39 143 93 523 26 186 48 336 50 334 1 -1 5 -121 8 -267 12 -598 6 -569 258
-1295 253 -727 395 -1215 496 -1704 34 -167 85 -474 101 -605 5 -49 12 -108
15 -130 8 -70 34 -424 45 -600 5 -93 10 -621 10 -1172 l0 -1002 -30 -16 c-17
-9 -52 -20 -80 -25 -27 -5 -83 -25 -123 -44 -41 -19 -94 -40 -117 -46 -24 -6
-53 -18 -65 -26 -12 -8 -46 -21 -76 -30 -30 -9 -61 -22 -69 -29 -8 -7 -55 -21
-105 -30 -183 -34 -502 -106 -578 -131 -42 -14 -83 -33 -90 -43 -6 -10 -47
-34 -89 -54 -86 -42 -197 -142 -216 -195 -11 -31 -14 -266 -5 -316 l5 -26
1439 0 1439 0 0 189 c0 218 -18 377 -56 507 -15 49 -30 111 -35 137 -16 93
-72 163 -187 232 -44 27 -68 48 -70 61 -4 30 65 310 89 360 28 59 136 501 165
676 13 80 31 162 39 181 8 19 26 88 41 153 14 66 30 124 35 130 5 6 16 31 24
55 23 64 132 538 150 654 21 132 53 258 80 320 89 200 102 1031 20 1246 -5 13
14 15 122 16 214 1 466 44 808 138 257 71 338 99 340 115 1 8 5 107 9 220 4
113 11 333 16 490 22 650 33 1653 26 2300 -4 366 -9 690 -11 720 -2 30 -6 141
-9 245 -17 491 -67 1081 -121 1405 -91 554 -195 913 -357 1234 -178 353 -366
580 -773 932 -543 470 -785 692 -947 871 -213 234 -274 316 -338 450 -32 67
-74 146 -94 176 -20 29 -87 157 -150 283 -63 126 -137 263 -165 304 -27 42
-62 107 -76 145 -15 39 -34 84 -42 100 -9 17 -36 71 -61 120 -25 50 -56 103
-69 119 -13 16 -73 128 -132 250 -59 122 -126 248 -149 282 -22 33 -89 157
-147 275 -58 117 -116 232 -130 254 -13 23 -47 109 -74 192 -63 192 -124 335
-167 396 -19 26 -63 100 -99 164 -36 64 -85 144 -109 177 -64 89 -321 362
-376 399 -72 49 -173 131 -163 134 25 8 753 227 779 234 l32 9 -19 53 c-39
104 -139 295 -219 416 -170 260 -321 442 -560 680 -274 273 -433 409 -591 505
-102 62 -477 218 -552 230 -57 9 -69 18 -151 114 -135 160 -339 340 -489 431
-146 89 -467 233 -592 265 -72 19 -246 19 -425 0z m1922 -1294 c76 -151 367
-983 387 -1105 5 -33 13 -122 17 -198 l6 -138 -153 76 c-113 55 -170 90 -217
131 l-62 56 -39 -34 c-22 -18 -87 -74 -144 -125 -116 -102 -108 -101 -155 -23
-23 40 -62 150 -62 178 0 10 33 52 73 93 80 82 139 184 177 304 18 57 22 95
22 200 0 139 -13 234 -63 449 -17 71 -27 132 -22 136 18 17 150 59 178 57 26
-2 34 -10 57 -57z m-918 -4055 c9 -13 41 -43 72 -65 30 -23 58 -48 61 -56 3
-8 -14 -42 -37 -75 -23 -33 -69 -118 -101 -187 -72 -158 -142 -292 -185 -358
-19 -28 -34 -58 -34 -66 0 -9 -6 -18 -14 -21 -7 -3 -28 -41 -46 -84 -44 -107
-137 -291 -166 -330 -13 -17 -68 -123 -122 -235 -54 -111 -119 -237 -144 -278
-25 -41 -59 -102 -77 -134 -18 -33 -44 -77 -59 -98 -27 -38 -325 -305 -459
-411 -40 -32 -73 -61 -73 -66 0 -4 -42 -41 -92 -82 -51 -41 -127 -105 -168
-144 -119 -110 -354 -315 -423 -368 -34 -27 -105 -89 -158 -138 -52 -49 -114
-101 -136 -116 -23 -16 -124 -102 -225 -193 -241 -218 -357 -319 -389 -339
-23 -14 -63 -15 -350 -10 -320 6 -479 15 -479 28 1 3 33 26 73 51 40 24 118
79 174 122 56 42 119 86 140 97 21 11 70 45 108 76 39 32 111 84 160 118 50
33 119 84 155 113 36 28 92 68 125 89 33 21 92 64 131 96 39 32 97 74 130 93
32 19 91 60 129 91 39 32 104 80 145 107 41 28 104 74 140 103 36 28 103 77
150 107 47 30 107 73 134 96 27 22 75 50 107 61 98 36 147 77 194 161 23 41
56 89 72 105 42 42 92 114 153 220 29 50 76 119 105 155 72 89 165 220 176
248 12 31 53 90 133 191 37 46 94 130 127 186 33 57 77 122 97 146 54 63 100
129 177 254 37 61 93 142 124 180 32 39 92 124 134 190 42 66 100 151 129 188
84 107 138 184 138 196 0 20 27 11 44 -14z m1017 -891 c113 -105 91 -72 399
-589 814 -1369 1125 -1944 1341 -2484 170 -424 249 -789 249 -1157 0 -137 -22
-385 -46 -519 -78 -444 -184 -1067 -184 -1088 0 -6 -30 18 -67 55 -83 80 -97
88 -165 88 -59 1 -175 23 -188 36 -5 5 2 54 15 109 94 395 94 766 0 1090 -35
121 -80 216 -140 297 -27 37 -65 95 -84 128 -19 33 -61 91 -92 128 l-57 67 5
160 c5 160 5 160 -40 383 -50 245 -71 301 -145 395 -27 34 -80 107 -118 162
-130 189 -193 231 -390 265 -133 23 -177 24 -242 9 -118 -29 -328 -151 -397
-232 -38 -44 -83 -169 -110 -302 -18 -90 -37 -280 -31 -312 4 -19 -4 -22 -82
-38 -215 -42 -358 -98 -560 -218 -130 -78 -153 -96 -368 -295 -28 -26 -72 -84
-98 -129 -26 -44 -54 -84 -63 -87 -8 -4 -41 5 -71 19 -65 30 -195 158 -225
221 -62 130 -167 304 -248 408 -93 118 -442 464 -509 503 -33 20 -102 45 -169
62 -111 28 -152 48 -122 59 7 2 38 26 67 53 29 27 72 58 94 69 23 11 89 57
148 102 59 45 123 91 142 102 19 11 80 54 136 96 55 41 134 99 175 128 40 28
97 71 126 95 28 23 82 61 120 84 37 23 95 65 128 93 33 28 89 68 125 90 36 21
101 68 145 103 51 41 103 72 143 87 77 28 136 79 182 156 19 33 54 81 78 108
45 51 112 152 172 257 19 33 63 95 98 137 65 78 142 185 142 198 0 16 74 125
124 183 52 60 102 135 170 253 15 27 48 74 75 105 69 84 148 197 171 245 26
55 106 158 123 158 8 0 60 -43 118 -96z m-6166 -3158 c16 -12 13 -14 -36 -18
-30 -3 -56 -4 -57 -3 -5 5 50 34 64 35 5 0 19 -6 29 -14z m3673 -2105 c10 -6
8 -21 -12 -74 -13 -36 -31 -76 -39 -89 -15 -23 -34 -108 -59 -261 -14 -91 -24
-78 -27 33 -2 102 -19 328 -27 368 l-6 32 78 0 c44 0 85 -4 92 -9z m-12059
-2025 c-2 -2 -71 -27 -154 -56 -82 -28 -181 -67 -220 -87 -102 -51 -309 -133
-392 -154 -95 -25 -305 -107 -319 -125 -6 -8 -16 -14 -22 -14 -7 0 -51 -16
-99 -36 -48 -20 -180 -68 -293 -106 -113 -38 -232 -84 -266 -103 -33 -18 -108
-50 -165 -70 -57 -21 -120 -46 -140 -56 -19 -9 -73 -27 -118 -38 -83 -21 -235
-81 -322 -126 -69 -37 -302 -124 -351 -131 -24 -4 -55 -13 -69 -20 -14 -7 -75
-31 -134 -53 -59 -23 -131 -54 -159 -71 -63 -35 -228 -97 -473 -174 -76 -25
-155 -58 -213 -91 -33 -19 -304 -125 -318 -125 -27 0 -361 -124 -402 -150 -51
-31 -279 -117 -415 -155 -49 -14 -135 -48 -190 -74 -119 -58 -356 -153 -440
-175 -33 -9 -76 -23 -95 -31 -19 -8 -80 -31 -135 -51 -55 -20 -107 -42 -115
-50 -19 -17 -146 -65 -370 -142 -200 -69 -242 -86 -279 -112 -14 -11 -66 -33
-116 -51 -49 -17 -107 -40 -127 -50 -43 -22 -241 -79 -275 -79 l-23 0 0 1380
0 1380 3607 0 c1983 0 3604 -2 3602 -4z m9119 -1375 c-2 -759 -5 -1382 -8
-1385 -22 -21 -395 110 -526 184 -29 17 -160 66 -291 109 -131 43 -264 90
-294 105 -31 14 -60 26 -65 26 -5 0 -25 11 -44 24 -40 26 -213 93 -279 107
-24 5 -98 31 -165 58 -67 26 -152 59 -191 72 -38 13 -74 29 -80 36 -12 14
-115 57 -215 89 -232 76 -410 144 -480 182 -30 16 -145 60 -255 97 -110 37
-234 82 -275 100 -41 18 -86 36 -100 40 -27 8 -146 60 -170 76 -40 25 -111 52
-170 65 -71 15 -366 128 -390 149 -19 18 -145 66 -370 143 -214 73 -260 91
-375 147 -49 24 -193 78 -319 120 -125 41 -279 100 -340 130 -61 30 -190 81
-286 113 -248 85 -337 119 -400 153 -75 42 -251 107 -385 145 -33 9 -100 33
-150 54 -49 21 -109 43 -132 49 -23 6 -55 22 -70 34 -32 27 -88 50 -268 111
l-130 44 3613 1 3613 1 -3 -1379z"/>
</g>
<g transform="matrix(1 0 0 1 1366.7985 598.1311)" style="" id="601127">
		
<path xml:space="preserve" font-family="Mrs Saint Delafield" font-size="460" style="stroke: none; stroke-width: 0; stroke-dasharray: none; stroke-linecap: butt; stroke-dashoffset: 0; stroke-linejoin: miter; stroke-miterlimit: 4; is-custom-font: none; font-file-url: none; fill:#02838d; fill-rule: nonzero; opacity: 1; white-space: pre;" d="M-806.38-128.74L-806.38-128.74L-908.50-133.80Q-909.42-133.80-912.64-131.04Q-915.86-128.28-918.16-128.28Q-920.46-128.28-921.38-128.74L-921.38-128.74Q-948.52-138.40-948.52-152.20L-948.52-152.20Q-948.52-159.10-940.70-159.10L-940.70-159.10Q-936.10-159.10-881.13-151.97Q-826.16-144.84-762.68-144.84Q-699.20-144.84-640.78-151.74L-640.78-151.74Q-578.68-205.56-517.50-205.56L-517.50-205.56Q-492.20-205.56-492.20-193.60L-492.20-193.60Q-492.20-162.32-633.88-141.62L-633.88-141.62Q-680.80-94.70-747.50 11.56L-747.50 11.56Q-772.34 50.66-796.72 87.00L-796.72 87.00Q-850.54 167.04-884.58 167.04L-884.58 167.04Q-897 167.04-897 156.23Q-897 145.42-887.80 131.16L-887.80 131.16Q-879.06 117.36-874 117.36L-874 117.36Q-873.54 117.36-873.54 117.36L-873.54 117.36Q-867.56 117.36-867.56 124.26L-867.56 124.26L-869.40 133.00Q-869.40 135.30-867.56 135.30L-867.56 135.30Q-843.18 135.30-784.76 35.94L-784.76 35.94Q-761.30-4.08-724.96-55.14Q-688.62-106.20-654.58-138.86L-654.58-138.86Q-734.16-128.74-806.38-128.74ZM-528.54-196.82L-528.54-196.82Q-572.70-196.82-620.08-154.50L-620.08-154.50Q-586.04-159.56-561.43-166.92Q-536.82-174.28-526.70-180.72Q-516.58-187.16-516.58-191.99Q-516.58-196.82-528.54-196.82Z"/><path xml:space="preserve" font-family="Mrs Saint Delafield" font-size="460" style="stroke: none; stroke-width: 0; stroke-dasharray: none; stroke-linecap: butt; stroke-dashoffset: 0; stroke-linejoin: miter; stroke-miterlimit: 4; is-custom-font: none; font-file-url: none; fill:#02838d; fill-rule: nonzero; opacity: 1; white-space: pre;" d="M-533.60 75.96L-523.48 67.68Q-520.26 65.38-517.50 65.38Q-514.74 65.38-514.74 68.14L-514.74 68.14L-514.74 69.52Q-551.08 99.88-586.04 123.80L-586.04 123.80Q-621 150.48-634.57 150.48Q-648.14 150.48-648.14 139.44L-648.14 139.44Q-648.14 127.48-630.66 98.96Q-613.18 70.44-613.18 68.37Q-613.18 66.30-615.02 66.30L-615.02 66.30Q-621 66.30-651.59 92.75Q-682.18 119.20-705.18 141.74L-705.18 141.74Q-713.92 149.56-717.37 149.56Q-720.82 149.56-720.82 144.50Q-720.82 139.44-714.84 131.62L-714.84 131.62L-554.30-113.10Q-549.24-120.92-540.73-120.92Q-532.22-120.92-532.22-115.40L-532.22-115.40Q-532.22-112.18-534.75-108.50Q-537.28-104.82-565.80-64.57Q-594.32-24.32-598.69-16.96Q-603.06-9.60-638.71 43.76Q-674.36 97.12-676.43 100.11Q-678.50 103.10-678.50 104.94Q-678.50 106.78-676.89 106.78Q-675.28 106.78-674.82 106.32L-674.82 106.32Q-660.10 91.60-634.57 72.05Q-609.04 52.50-599.38 52.50L-599.38 52.50Q-595.70 52.50-592.94 55.03Q-590.18 57.56-590.18 63.31Q-590.18 69.06-608.12 94.59Q-626.06 120.12-626.06 127.71Q-626.06 135.30-621.23 135.30Q-616.40 135.30-597.08 122.42L-597.08 122.42Q-562.58 99.42-533.60 75.96L-533.60 75.96Z"/><path xml:space="preserve" font-family="Mrs Saint Delafield" font-size="460" style="stroke: none; stroke-width: 0; stroke-dasharray: none; stroke-linecap: butt; stroke-dashoffset: 0; stroke-linejoin: miter; stroke-miterlimit: 4; is-custom-font: none; font-file-url: none; fill:#02838d; fill-rule: nonzero; opacity: 1; white-space: pre;" d="M-394.22 77.80L-382.72 68.14Q-379.50 65.84-376.74 65.84Q-373.98 65.84-373.98 69.06L-373.98 69.06L-373.98 69.98Q-421.82 109.54-453.56 129.32Q-485.30 149.10-511.06 149.10L-511.06 149.10Q-531.76 149.10-531.76 128.86L-531.76 128.86Q-531.76 98.96-501.40 67.45Q-471.04 35.94-450.34 35.94L-450.34 35.94Q-438.84 35.94-438.84 48.82L-438.84 48.82Q-441.14 74.12-511.52 116.90L-511.52 116.90L-511.52 121.50Q-511.52 136.68-495.65 136.68Q-479.78 136.68-461.38 126.10L-461.38 126.10Q-425.50 104.94-394.22 77.80L-394.22 77.80ZM-462.30 50.20L-462.30 50.20Q-472.42 50.20-488.29 67.22Q-504.16 84.24-509.68 105.86L-509.68 105.86Q-487.60 92.52-472.42 77.57Q-457.24 62.62-457.24 56.41Q-457.24 50.20-462.30 50.20Z"/><path xml:space="preserve" font-family="Mrs Saint Delafield" font-size="460" style="stroke: none; stroke-width: 0; stroke-dasharray: none; stroke-linecap: butt; stroke-dashoffset: 0; stroke-linejoin: miter; stroke-miterlimit: 4; is-custom-font: none; font-file-url: none; fill:#02838d; fill-rule: nonzero; opacity: 1; white-space: pre;" d="M-267.26 75.96L-257.60 68.14Q-254.38 65.84-251.62 65.84Q-248.86 65.84-248.86 69.06L-248.86 69.06L-248.86 69.98Q-283.36 97.58-316.94 121.73Q-350.52 145.88-366.16 145.88L-366.16 145.88Q-377.66 145.88-377.66 133.46Q-377.66 121.04-366.62 108.62Q-355.58 96.20-344.77 87.00Q-333.96 77.80-333.96 74.81Q-333.96 71.82-337.41 67.91Q-340.86 64.00-343.16 62.62L-343.16 62.62Q-350.98 70.44-377.20 91.14L-377.20 91.14L-379.04 84.24Q-350.06 61.24-345.46 53.42L-345.46 53.42L-345.46 49.28Q-345.46 37.78-343.16 33.64Q-340.86 29.50-332.12 22.14Q-323.38 14.78-320.16 14.78Q-316.94 14.78-314.41 17.08Q-311.88 19.38-311.88 21.68Q-311.88 23.98-313.49 26.97Q-315.10 29.96-316.71 32.03Q-318.32 34.10-321.08 37.09Q-323.84 40.08-324.53 41.23Q-325.22 42.38-325.91 45.14Q-326.60 47.90-328.90 49.74Q-331.20 51.58-331.20 54.34Q-331.20 57.10-327.52 66.53Q-323.84 75.96-323.84 80.33Q-323.84 84.70-340.86 101.03Q-357.88 117.36-357.88 127.48L-357.88 127.48Q-357.88 133.00-352.82 133.00L-352.82 133.00Q-346.38 133.00-328.90 121.50L-328.90 121.50L-323.38 117.82Q-293.48 97.12-267.26 75.96L-267.26 75.96Z"/><path xml:space="preserve" font-family="Mrs Saint Delafield" font-size="460" style="stroke: none; stroke-width: 0; stroke-dasharray: none; stroke-linecap: butt; stroke-dashoffset: 0; stroke-linejoin: miter; stroke-miterlimit: 4; is-custom-font: none; font-file-url: none; fill:#02838d; fill-rule: nonzero; opacity: 1; white-space: pre;" d="M-187.22 89.30L-187.22 89.30Q-189.98 89.30-189.98 87.23Q-189.98 85.16-186.76 82.40L-186.76 82.40Q-171.58 69.98-171.58 59.86L-171.58 59.86Q-171.58 53.42-183.08 52.50L-183.08 52.50Q-203.78 52.96-232.53 82.40Q-261.28 111.84-261.28 126.56L-261.28 126.56Q-261.28 131.62-255.53 131.62Q-249.78 131.62-240.12 123.80L-240.12 123.80Q-231.38 118.28-207.46 96.20L-207.46 96.20Q-201.94 90.68-196.88 90.68L-196.88 90.68Q-190.44 90.68-190.44 96.66L-190.44 96.66Q-190.44 98.96-191.82 100.34Q-193.20 101.72-196.88 106.09Q-200.56 110.46-203.32 114.14L-203.32 114.14Q-211.60 126.10-211.60 129.78L-211.60 129.78Q-211.60 138.98-204.24 138.98L-204.24 138.98Q-194.58 138.98-167.90 121.27Q-141.22 103.56-119.14 85.62L-119.14 85.62L-97.06 68.14Q-93.84 65.84-91.08 65.84Q-88.32 65.84-88.32 69.06L-88.32 69.06L-88.32 69.98Q-123.74 99.88-163.07 126.10Q-202.40 152.32-214.82 152.32L-214.82 152.32Q-229.54 152.32-229.54 136.68L-229.54 136.68Q-229.54 133.00-228.16 129.78Q-226.78 126.56-226.78 125.18Q-226.78 123.80-227.70 123.34L-227.70 123.34Q-229.08 123.34-245.41 135.76Q-261.74 148.18-273.93 148.18Q-286.12 148.18-286.12 135.30Q-286.12 122.42-268.87 100.57Q-251.62 78.72-222.64 60.78Q-193.66 42.84-166.06 42.84L-166.06 42.84Q-159.62 42.84-155.25 46.06Q-150.88 49.28-150.88 55.95Q-150.88 62.62-164.22 75.96Q-177.56 89.30-187.22 89.30Z"/><path xml:space="preserve" font-family="Mrs Saint Delafield" font-size="460" style="stroke: none; stroke-width: 0; stroke-dasharray: none; stroke-linecap: butt; stroke-dashoffset: 0; stroke-linejoin: miter; stroke-miterlimit: 4; is-custom-font: none; font-file-url: none; fill:#02838d; fill-rule: nonzero; opacity: 1; white-space: pre;" d="M90.16 68.14L90.16 69.52Q-6.90 150.48-29.90 150.48L-29.90 150.48Q-43.24 150.48-43.24 139.67Q-43.24 128.86-17.94 99.19Q7.36 69.52 7.36 61.24L7.36 61.24Q6.44 60.32 5.52 60.32L5.52 60.32Q-7.36 60.32-35.88 80.10L-35.88 80.10Q-220.80 339.08-246.10 339.08L-246.10 339.08Q-251.16 339.08-254.61 335.63Q-258.06 332.18-258.06 325.28L-258.06 325.28Q-258.06 293.54-195.50 219.02Q-132.94 144.50-67.16 93.44L-67.16 93.44L-26.68 34.56L-26.68 34.10Q-26.68 32.72-28.52 32.72L-28.52 32.72Q-37.72 48.82-78.20 81.02L-78.20 81.02L-91.54 91.14L-93.38 84.24Q-58.42 55.72-28.52 25.36Q1.38-5.00 13.80-21.10L13.80-21.10L26.22-37.20Q32.66-45.94 40.48-45.94Q48.30-45.94 48.30-41.34L48.30-41.34Q48.30-39.50 47.15-38.12Q46-36.74 36.57-23.17Q27.14-9.60 8.74 16.39Q-9.66 42.38-25.76 65.38L-25.76 65.38Q0.92 50.20 14.49 50.20Q28.06 50.20 28.06 55.72L28.06 55.72Q28.06 74.12-8.74 112.30L-8.74 112.30Q-21.16 125.18-21.16 129.09Q-21.16 133.00-14.49 133.00Q-7.82 133.00 9.20 121.50L9.20 121.50Q42.78 98.96 71.30 75.96L71.30 75.96L81.42 67.68Q84.64 65.38 87.40 65.38Q90.16 65.38 90.16 68.14L90.16 68.14ZM-240.12 323.90L-240.12 323.90Q-225.86 323.90-82.34 115.98L-82.34 115.98Q-143.06 167.50-192.97 228.45Q-242.88 289.40-242.88 321.14L-242.88 321.14Q-242.88 323.90-240.12 323.90Z"/><path xml:space="preserve" font-family="Mrs Saint Delafield" font-size="460" style="stroke: none; stroke-width: 0; stroke-dasharray: none; stroke-linecap: butt; stroke-dashoffset: 0; stroke-linejoin: miter; stroke-miterlimit: 4; is-custom-font: none; font-file-url: none; fill:#02838d; fill-rule: nonzero; opacity: 1; white-space: pre;" d="M153.41 5.58Q157.78 5.58 160.31 8.34Q162.84 11.10 162.84 16.16Q162.84 21.22 155.94 29.04Q149.04 36.86 143.98 36.86Q138.92 36.86 136.62 33.87Q134.32 30.88 134.32 26.97Q134.32 23.06 141.68 14.32Q149.04 5.58 153.41 5.58ZM181.24 75.96L191.36 67.68Q195.04 65.38 197.11 65.38Q199.18 65.38 199.18 68.14L199.18 68.14L199.18 69.52Q201.02 69.52 174.57 89.76Q148.12 110.00 117.99 130.24Q87.86 150.48 80.04 150.48L80.04 150.48Q66.70 150.48 66.70 139.44L66.70 139.44Q66.70 126.10 89.70 89.07Q112.70 52.04 123.28 52.04L123.28 52.04Q131.10 52.04 131.10 58.02Q131.10 64.00 109.94 90.68Q88.78 117.36 88.78 128.86L88.78 128.86Q88.78 135.30 93.61 135.30Q98.44 135.30 117.76 122.42L117.76 122.42Q152.26 99.42 181.24 75.96L181.24 75.96Z"/><path xml:space="preserve" font-family="Mrs Saint Delafield" font-size="460" style="stroke: none; stroke-width: 0; stroke-dasharray: none; stroke-linecap: butt; stroke-dashoffset: 0; stroke-linejoin: miter; stroke-miterlimit: 4; is-custom-font: none; font-file-url: none; fill:#02838d; fill-rule: nonzero; opacity: 1; white-space: pre;" d="M320.16 77.80L331.66 68.14Q334.88 65.84 337.64 65.84Q340.40 65.84 340.40 69.06L340.40 69.06L340.40 69.98Q292.56 109.54 260.82 129.32Q229.08 149.10 203.32 149.10L203.32 149.10Q182.62 149.10 182.62 128.86L182.62 128.86Q182.62 98.96 212.98 67.45Q243.34 35.94 264.04 35.94L264.04 35.94Q275.54 35.94 275.54 48.82L275.54 48.82Q273.24 74.12 202.86 116.90L202.86 116.90L202.86 121.50Q202.86 136.68 218.73 136.68Q234.60 136.68 253 126.10L253 126.10Q288.88 104.94 320.16 77.80L320.16 77.80ZM252.08 50.20L252.08 50.20Q241.96 50.20 226.09 67.22Q210.22 84.24 204.70 105.86L204.70 105.86Q226.78 92.52 241.96 77.57Q257.14 62.62 257.14 56.41Q257.14 50.20 252.08 50.20Z"/><path xml:space="preserve" font-family="Mrs Saint Delafield" font-size="460" style="stroke: none; stroke-width: 0; stroke-dasharray: none; stroke-linecap: butt; stroke-dashoffset: 0; stroke-linejoin: miter; stroke-miterlimit: 4; is-custom-font: none; font-file-url: none; fill:#02838d; fill-rule: nonzero; opacity: 1; white-space: pre;" d="M368.69 125.64Q373.06 125.64 375.59 128.40Q378.12 131.16 378.12 136.22Q378.12 141.28 371.22 149.10Q364.32 156.92 359.26 156.92Q354.20 156.92 351.90 153.93Q349.60 150.94 349.60 147.03Q349.60 143.12 356.96 134.38Q364.32 125.64 368.69 125.64Z"/><path xml:space="preserve" font-family="Mrs Saint Delafield" font-size="460" style="stroke: none; stroke-width: 0; stroke-dasharray: none; stroke-linecap: butt; stroke-dashoffset: 0; stroke-linejoin: miter; stroke-miterlimit: 4; is-custom-font: none; font-file-url: none; fill:#02838d; fill-rule: nonzero; opacity: 1; white-space: pre;" d="M658.26-51.92L658.26-51.92Q658.26-56.06 650.90-56.52L650.90-56.52Q627.90-10.06 584.66 46.29Q541.42 102.64 503.01 139.90Q464.60 177.16 451.49 177.16Q438.38 177.16 438.38 166.12L438.38 166.12Q438.38 140.36 502.09 62.39Q565.80-15.58 644.92-82.74L644.92-82.74Q652.74-105.28 652.74-122.99Q652.74-140.70 642.85-153.35Q632.96-166.00 616.40-171.98L616.40-171.98Q586.96-182.56 554.30-182.56L554.30-182.56Q478.86-182.56 477.94-157.26L477.94-157.26Q477.94-147.60 489.44-140.47Q500.94-133.34 517.73-127.82Q534.52-122.30 551.31-115.63Q568.10-108.96 579.83-96.54Q591.56-84.12 591.56-69.86Q591.56-55.60 587.19-55.60Q582.82-55.60 582.82-61.12L582.82-61.12Q582.82-78.14 563.50-90.56Q544.18-102.98 521.18-109.65Q498.18-116.32 478.86-127.36Q459.54-138.40 459.54-151.05Q459.54-163.70 469.20-171.75Q478.86-179.80 493.58-183.94L493.58-183.94Q523.02-191.30 546.94-191.30Q570.86-191.30 590.41-188.08Q609.96-184.86 628.82-177.27Q647.68-169.68 659.18-154.96Q670.68-140.24 670.68-120.00L670.68-120.00Q670.68-112.64 668.38-102.06L668.38-102.06Q777.86-189.00 843.64-189.00L843.64-189.00Q868.02-189.00 868.02-170.60L868.02-170.60Q868.02-148.98 838.81-112.41Q809.60-75.84 770.50-47.32Q731.40-18.80 706.10-18.80L706.10-18.80Q690.46-18.80 678.50-25.24L678.50-25.24Q678.04-25.70 676.66-25.70Q675.28-25.70 675.28-11.67Q675.28 2.36 675.97 16.39Q676.66 30.42 679.88 54.11Q683.10 77.80 689.08 94.59Q695.06 111.38 707.02 124.26Q718.98 137.14 734.39 137.14Q749.80 137.14 782.46 122.42L782.46 122.42Q787.06 120.12 790.51 120.12Q793.96 120.12 793.96 121.96L793.96 121.96Q793.96 126.10 787.06 129.32L787.06 129.32Q747.50 150.02 725.42 150.02Q703.34 150.02 688.85 134.15Q674.36 118.28 668.84 91.37Q663.32 64.46 661.48 39.39Q659.64 14.32 659.64-14.20Q659.64-42.72 658.26-51.92ZM663.32-85.04L663.32-85.04Q659.64-74.46 655.04-64.80L655.04-64.80L669.76-64.80Q672.06-64.80 672.52-60.66Q672.98-56.52 673.44-50.54Q673.90-44.56 676.66-40.65Q679.42-36.74 687.47-32.14Q695.52-27.54 706.10-27.54L706.10-27.54Q727.26-27.54 760.61-56.29Q793.96-85.04 818.34-119.31Q842.72-153.58 842.72-169.22L842.72-169.22Q842.72-177.50 834.44-177.50L834.44-177.50Q776.94-177.50 663.32-85.04ZM458.16 163.36L458.16 163.36Q468.74 163.36 503.24 127.94Q537.74 92.52 577.76 37.32Q617.78-17.88 637.56-63.42L637.56-63.42Q564.88-0.86 510.37 65.84Q455.86 132.54 455.86 160.14L455.86 160.14Q455.86 163.36 458.16 163.36Z"/><path xml:space="preserve" font-family="Mrs Saint Delafield" font-size="460" style="stroke: none; stroke-width: 0; stroke-dasharray: none; stroke-linecap: butt; stroke-dashoffset: 0; stroke-linejoin: miter; stroke-miterlimit: 4; is-custom-font: none; font-file-url: none; fill:#02838d; fill-rule: nonzero; opacity: 1; white-space: pre;" d="M910.34 104.94L910.34 104.94Q936.10 104.94 971.98 75.96L971.98 75.96L979.80 78.26Q934.72 115.98 902.06 115.98L902.06 115.98Q898.38 115.98 896.54 115.52L896.54 115.52Q884.12 130.70 869.40 140.13Q854.68 149.56 843.64 149.56L843.64 149.56Q826.16 149.56 826.16 130.01Q826.16 110.46 858.82 77.80L858.82 77.80Q853.30 64.46 853.30 49.74Q853.30 35.02 863.88 25.82Q874.46 16.62 888.49 16.62Q902.52 16.62 912.18 25.82Q921.84 35.02 921.84 52.04L921.84 52.04Q921.84 78.26 904.82 104.48L904.82 104.48Q906.66 104.94 910.34 104.94ZM895.62 100.34L895.62 100.34Q909.88 76.42 909.88 59.63Q909.88 42.84 901.60 34.79Q893.32 26.74 885.50 26.74L885.50 26.74Q869.40 26.74 869.40 43.30Q869.40 59.86 876.76 76.19Q884.12 92.52 895.62 100.34ZM845.02 127.48L845.02 127.48Q845.02 136.68 856.98 136.68Q868.94 136.68 887.34 112.30L887.34 112.30Q874.92 105.86 865.26 89.76L865.26 89.76Q845.02 111.84 845.02 127.48Z"/></g>
<g transform="matrix(1 0 0 1 1635.0539 899.5357)" style="" id="505678">
		
<path xml:space="preserve" font-family="Mrs Saint Delafield" font-size="199" style="stroke: none; stroke-width: 0; stroke-dasharray: none; stroke-linecap: butt; stroke-dashoffset: 0; stroke-linejoin: miter; stroke-miterlimit: 4; is-custom-font: none; font-file-url: none; fill:#02838d; fill-rule: nonzero; opacity: 1; white-space: pre;" d="M-193.53-55.69L-193.53-55.69L-237.71-57.88Q-238.10-57.88-239.50-56.69Q-240.89-55.49-241.88-55.49Q-242.88-55.49-243.28-55.69L-243.28-55.69Q-255.02-59.87-255.02-65.84L-255.02-65.84Q-255.02-68.83-251.64-68.83L-251.64-68.83Q-249.65-68.83-225.87-65.74Q-202.08-62.66-174.62-62.66Q-147.16-62.66-121.89-65.64L-121.89-65.64Q-95.02-88.93-68.56-88.93L-68.56-88.93Q-57.61-88.93-57.61-83.75L-57.61-83.75Q-57.61-70.22-118.90-61.26L-118.90-61.26Q-139.20-40.97-168.06 5.00L-168.06 5.00Q-178.80 21.92-189.35 37.64L-189.35 37.64Q-212.63 72.26-227.36 72.26L-227.36 72.26Q-232.73 72.26-232.73 67.59Q-232.73 62.91-228.75 56.74L-228.75 56.74Q-224.97 50.77-222.78 50.77L-222.78 50.77Q-222.58 50.77-222.58 50.77L-222.58 50.77Q-219.99 50.77-219.99 53.76L-219.99 53.76L-220.79 57.54Q-220.79 58.53-219.99 58.53L-219.99 58.53Q-209.45 58.53-184.17 15.55L-184.17 15.55Q-174.03-1.76-158.30-23.85Q-142.58-45.94-127.86-60.07L-127.86-60.07Q-162.28-55.69-193.53-55.69ZM-73.33-85.14L-73.33-85.14Q-92.44-85.14-112.93-66.84L-112.93-66.84Q-98.21-69.03-87.56-72.21Q-76.91-75.39-72.54-78.18Q-68.16-80.97-68.16-83.05Q-68.16-85.14-73.33-85.14ZM-124.18 2.42Q-122.29 2.42-121.19 3.61Q-120.10 4.80-120.10 6.99Q-120.10 9.18-123.08 12.56Q-126.07 15.95-128.26 15.95Q-130.44 15.95-131.44 14.65Q-132.43 13.36-132.43 11.67Q-132.43 9.98-129.25 6.20Q-126.07 2.42-124.18 2.42ZM-112.14 32.86L-107.76 29.28Q-106.17 28.29-105.27 28.29Q-104.38 28.29-104.38 29.48L-104.38 29.48L-104.38 30.08Q-103.58 30.08-115.02 38.83Q-126.46 47.59-139.50 56.34Q-152.53 65.10-155.92 65.10L-155.92 65.10Q-161.69 65.10-161.69 60.32L-161.69 60.32Q-161.69 54.55-151.74 38.53Q-141.79 22.51-137.21 22.51L-137.21 22.51Q-133.83 22.51-133.83 25.10Q-133.83 27.69-142.98 39.23Q-152.14 50.77-152.14 55.75L-152.14 55.75Q-152.14 58.53-150.05 58.53Q-147.96 58.53-139.60 52.96L-139.60 52.96Q-124.67 43.01-112.14 32.86L-112.14 32.86ZM-107.16 27.89L-107.16 27.89L-107.56 25.70Q-107.56 24.70-103.38 24.70L-103.38 24.70Q-100.99 24.70-100.99 27.69Q-100.99 30.67-107.86 40.92Q-114.72 51.17-114.72 51.57Q-114.72 51.97-113.93 51.97Q-113.13 51.97-95.52 38.04Q-77.91 24.11-74.33 24.11Q-70.74 24.11-70.74 26.59Q-70.74 29.08-72.73 32.17Q-74.72 35.25-81.09 43.31Q-87.46 51.37-87.86 51.97Q-88.26 52.56-88.26 53.36Q-88.26 54.16-86.96 54.16Q-85.67 54.16-67.36 40.62Q-49.05 27.09-46.47 27.09Q-43.88 27.09-43.88 29.28L-43.88 29.28Q-43.88 33.26-52.64 43.21Q-61.39 53.16-61.39 55.85Q-61.39 58.53-59.30 58.53Q-57.21 58.53-48.85 52.96L-48.85 52.96Q-33.93 43.01-21.39 32.86L-21.39 32.86L-17.01 29.28Q-15.42 28.29-14.33 28.29Q-13.23 28.29-13.23 29.48L-13.23 29.48L-13.23 30.08Q-55.22 65.10-65.17 65.10L-65.17 65.10Q-70.94 65.10-70.94 60.32L-70.94 60.32Q-70.94 56.34-65.17 48.58Q-59.40 40.82-59.40 40.13Q-59.40 39.43-59.90 39.43Q-60.40 39.43-76.22 50.77Q-92.04 62.12-95.02 62.12L-95.02 62.12Q-96.42 62.12-97.41 61.02Q-98.41 59.93-98.41 58.73L-98.41 58.73Q-98.41 55.15-89.85 44.21L-89.85 44.21Q-81.29 33.46-81.29 32.46L-81.29 32.46Q-81.29 31.47-82.49 31.47L-82.49 31.47Q-83.88 31.47-110.74 53.36L-110.74 53.36L-120.69 61.32Q-123.28 63.51-124.57 63.51Q-125.87 63.51-127.06 62.81Q-128.26 62.12-128.26 60.72Q-128.26 59.33-124.77 53.96Q-121.29 48.58-115.72 40.82L-115.72 40.82Q-107.16 29.28-107.16 27.89ZM4.18 2.42Q6.07 2.42 7.16 3.61Q8.26 4.80 8.26 6.99Q8.26 9.18 5.27 12.56Q2.29 15.95 0.10 15.95Q-2.09 15.95-3.08 14.65Q-4.08 13.36-4.08 11.67Q-4.08 9.98-0.90 6.20Q2.29 2.42 4.18 2.42ZM16.22 32.86L20.60 29.28Q22.19 28.29 23.08 28.29Q23.98 28.29 23.98 29.48L23.98 29.48L23.98 30.08Q24.78 30.08 13.33 38.83Q1.89 47.59-11.14 56.34Q-24.18 65.10-27.56 65.10L-27.56 65.10Q-33.33 65.10-33.33 60.32L-33.33 60.32Q-33.33 54.55-23.38 38.53Q-13.43 22.51-8.86 22.51L-8.86 22.51Q-5.47 22.51-5.47 25.10Q-5.47 27.69-14.63 39.23Q-23.78 50.77-23.78 55.75L-23.78 55.75Q-23.78 58.53-21.69 58.53Q-19.60 58.53-11.24 52.96L-11.24 52.96Q3.68 43.01 16.22 32.86L16.22 32.86ZM54.03 33.86L59.60 29.48Q61.19 28.48 62.29 28.48Q63.38 28.48 63.38 29.88L63.38 29.88L63.38 30.28Q48.06 43.21 31.04 54.55Q14.03 65.90 9.45 65.90Q4.88 65.90 1.79 64.21Q-1.29 62.51-1.29 60.32Q-1.29 58.14-0.10 56.64Q1.09 55.15 2.09 55.15Q3.08 55.15 5.37 58.24Q7.66 61.32 9.85 61.32L9.85 61.32Q14.43 61.32 17.01 51.57Q19.60 41.82 19.60 38.14Q19.60 34.45 19.10 34.45Q18.61 34.45 18.21 34.85L18.21 34.85L12.44 39.43L11.64 36.44Q24.18 26.49 26.17 23.11L26.17 23.11Q27.36 19.93 29.55 19.93L29.55 19.93Q30.94 19.93 30.94 20.92Q30.94 21.92 29.55 25.20Q28.16 28.48 25.87 40.03Q23.58 51.57 23.58 53.36Q23.58 55.15 24.58 55.15L24.58 55.15Q38.51 46.59 54.03 33.86L54.03 33.86ZM75.12 45.40L75.12 45.40Q86.27 45.40 101.79 32.86L101.79 32.86L105.17 33.86Q85.67 50.18 71.54 50.18L71.54 50.18Q69.95 50.18 69.15 49.98L69.15 49.98Q63.78 56.54 57.41 60.62Q51.04 64.70 46.27 64.70L46.27 64.70Q38.71 64.70 38.71 56.25Q38.71 47.79 52.83 33.66L52.83 33.66Q50.45 27.89 50.45 21.52Q50.45 15.15 55.02 11.17Q59.60 7.19 65.67 7.19Q71.74 7.19 75.92 11.17Q80.10 15.15 80.10 22.51L80.10 22.51Q80.10 33.86 72.73 45.20L72.73 45.20Q73.53 45.40 75.12 45.40ZM68.75 43.41L68.75 43.41Q74.92 33.06 74.92 25.80Q74.92 18.53 71.34 15.05Q67.76 11.57 64.38 11.57L64.38 11.57Q57.41 11.57 57.41 18.73Q57.41 25.90 60.60 32.96Q63.78 40.03 68.75 43.41ZM46.86 55.15L46.86 55.15Q46.86 59.13 52.04 59.13Q57.21 59.13 65.17 48.58L65.17 48.58Q59.80 45.80 55.62 38.83L55.62 38.83Q46.86 48.38 46.86 55.15ZM126.27 38.63L126.27 38.63Q125.07 38.63 125.07 37.74Q125.07 36.84 126.46 35.65L126.46 35.65Q133.03 30.28 133.03 25.90L133.03 25.90Q133.03 23.11 128.06 22.71L128.06 22.71Q119.10 22.91 106.66 35.65Q94.23 48.38 94.23 54.75L94.23 54.75Q94.23 56.94 96.71 56.94Q99.20 56.94 103.38 53.56L103.38 53.56Q107.16 51.17 117.51 41.62L117.51 41.62Q119.90 39.23 122.09 39.23L122.09 39.23Q124.87 39.23 124.87 41.82L124.87 41.82Q124.87 42.81 124.28 43.41Q123.68 44.01 122.09 45.90Q120.49 47.79 119.30 49.38L119.30 49.38Q115.72 54.55 115.72 56.15L115.72 56.15Q115.72 60.13 118.90 60.13L118.90 60.13Q123.08 60.13 134.62 52.46Q146.17 44.80 155.72 37.04L155.72 37.04L165.27 29.48Q166.66 28.48 167.86 28.48Q169.05 28.48 169.05 29.88L169.05 29.88L169.05 30.28Q153.73 43.21 136.71 54.55Q119.70 65.90 114.33 65.90L114.33 65.90Q107.96 65.90 107.96 59.13L107.96 59.13Q107.96 57.54 108.55 56.15Q109.15 54.75 109.15 54.16Q109.15 53.56 108.75 53.36L108.75 53.36Q108.16 53.36 101.09 58.73Q94.03 64.11 88.75 64.11Q83.48 64.11 83.48 58.53Q83.48 52.96 90.94 43.51Q98.41 34.06 110.94 26.30Q123.48 18.53 135.42 18.53L135.42 18.53Q138.21 18.53 140.10 19.93Q141.99 21.32 141.99 24.21Q141.99 27.09 136.22 32.86Q130.44 38.63 126.27 38.63ZM205.27 32.86L209.45 29.48Q210.84 28.48 212.03 28.48Q213.23 28.48 213.23 29.88L213.23 29.88L213.23 30.28Q198.30 42.22 183.78 52.66Q169.25 63.11 162.48 63.11L162.48 63.11Q157.51 63.11 157.51 57.74Q157.51 52.36 162.28 46.99Q167.06 41.62 171.74 37.64Q176.41 33.66 176.41 32.37Q176.41 31.07 174.92 29.38Q173.43 27.69 172.43 27.09L172.43 27.09Q169.05 30.47 157.71 39.43L157.71 39.43L156.91 36.44Q169.45 26.49 171.44 23.11L171.44 23.11L171.44 21.32Q171.44 16.35 172.43 14.55Q173.43 12.76 177.21 9.58Q180.99 6.40 182.38 6.40Q183.78 6.40 184.87 7.39Q185.97 8.39 185.97 9.38Q185.97 10.38 185.27 11.67Q184.57 12.96 183.88 13.86Q183.18 14.75 181.99 16.05Q180.79 17.34 180.49 17.84Q180.19 18.34 179.90 19.53Q179.60 20.72 178.60 21.52Q177.61 22.32 177.61 23.51Q177.61 24.70 179.20 28.78Q180.79 32.86 180.79 34.75Q180.79 36.64 173.43 43.71Q166.07 50.77 166.07 55.15L166.07 55.15Q166.07 57.54 168.25 57.54L168.25 57.54Q171.04 57.54 178.60 52.56L178.60 52.56L180.99 50.97Q193.93 42.02 205.27 32.86L205.27 32.86ZM229.94 38.63L229.94 38.63Q228.75 38.63 228.75 37.74Q228.75 36.84 230.14 35.65L230.14 35.65Q236.71 30.28 236.71 25.90L236.71 25.90Q236.71 23.11 231.74 22.71L231.74 22.71Q222.78 22.91 210.34 35.65Q197.91 48.38 197.91 54.75L197.91 54.75Q197.91 56.94 200.39 56.94Q202.88 56.94 207.06 53.56L207.06 53.56Q210.84 51.17 221.19 41.62L221.19 41.62Q223.58 39.23 225.77 39.23L225.77 39.23Q228.55 39.23 228.55 41.82L228.55 41.82Q228.55 42.81 227.95 43.41Q227.36 44.01 225.77 45.90Q224.17 47.79 222.98 49.38L222.98 49.38Q219.40 54.55 219.40 56.15L219.40 56.15Q219.40 60.13 222.58 60.13L222.58 60.13Q226.76 60.13 238.30 52.46Q249.84 44.80 259.40 37.04L259.40 37.04L268.95 29.48Q270.34 28.48 271.54 28.48Q272.73 28.48 272.73 29.88L272.73 29.88L272.73 30.28Q257.41 43.21 240.39 54.55Q223.38 65.90 218.00 65.90L218.00 65.90Q211.64 65.90 211.64 59.13L211.64 59.13Q211.64 57.54 212.23 56.15Q212.83 54.75 212.83 54.16Q212.83 53.56 212.43 53.36L212.43 53.36Q211.84 53.36 204.77 58.73Q197.71 64.11 192.43 64.11Q187.16 64.11 187.16 58.53Q187.16 52.96 194.62 43.51Q202.08 34.06 214.62 26.30Q227.16 18.53 239.10 18.53L239.10 18.53Q241.88 18.53 243.78 19.93Q245.67 21.32 245.67 24.21Q245.67 27.09 239.89 32.86Q234.12 38.63 229.94 38.63Z"/></g>

</svg>
